# Alias OBJ Model File
# Exported from SketchUp, (c) 2000-2012 Trimble Navigation Limited
# File units = meters

mtllib peça3.mtl

g Mesh1 Group1 Model

usemtl Amarelo
v 12.602 -1.40425 -1.95476
vt -26.8499 -0.393701
vn 0.928193 -0.055925 -0.367873
v 23.2186 -1.40425 -1.95476
vt -188.6 -0.393701
v 23.2186 -1.49323 -1.94123
vt -188.6 -3.93701
v 12.602 -1.49323 -1.94123
vt -26.8499 -3.93701
f 1/1/1 2/2/1 3/3/1 4/4/1 

v 23.3122 -1.39305 -1.88108
vt -57.3884 202.52
vn -5.42612e-14 0.988641 -0.150296
vt -56.6481 197.614
vt 46.1101 72.6989
v 12.5427 -1.39305 -1.88108
vt 46.8504 75.8055
f 5/5/2 2/6/2 1/7/2 6/8/2 

vt -203.853 -3.93701
vn 0.967629 -0.0379315 -0.249512
vt -203.853 -0.393701
vt -208.815 -0.393701
v 23.3122 -1.48203 -1.86755
vt -208.815 -3.93701
f 3/9/3 2/10/3 5/11/3 7/12/3 

v 12.5427 -1.48203 -1.86755
vt 28.7788 -3.93701
vn -0.928193 0.055925 0.367873
vt 192.859 -3.93701
vt 192.859 -0.393701
vt 28.7788 -0.393701
f 8/13/4 7/14/4 5/15/4 6/16/4 

vt 56.6481 197.614
vn 7.8866e-13 -0.988641 0.150296
vt 57.3884 202.52
vt -46.8504 75.8055
vt -46.1101 72.6989
f 3/17/5 7/18/5 8/19/5 4/20/5 

vt 81.4071 -3.93701
vn -0.983595 0.0271124 0.178345
vt 84.6007 -3.93701
vt 84.6007 -0.393701
vt 81.4071 -0.393701
f 4/21/6 8/22/6 6/23/6 1/24/6 

