# Alias OBJ Model File
# Exported from SketchUp, (c) 2000-2012 Trimble Navigation Limited
# File units = meters

mtllib peça4.mtl

g Mesh1 Group1 Model

usemtl Amarelo
v 17.3813 -2.21265 -7.19654
vt -1.74073 -0.393701
vn -0.0587659 -0.152123 -0.986613
v 23.4807 -2.26737 -7.55141
vt -62.4303 -0.393701
v 23.4807 -2.35632 -7.5377
vt -62.4303 -3.93701
v 17.3813 -2.3016 -7.18283
vt -1.74073 -3.93701
f 1/1/1 2/2/1 3/3/1 4/4/1 

vt -1.74073 -96.9873
vn -1.89237e-13 0.988321 -0.152386
v 17.2922 -2.20048 -7.11757
vt -0.810428 -93.0832
v 23.5787 -2.25687 -7.48333
vt -63.3617 -93.0832
vt -62.4303 -96.9873
f 1/5/2 5/6/2 6/7/2 2/8/2 

vt -94.7493 -0.393701
vn -0.999907 0.00207982 0.013489
vt -94.7493 -3.93701
v 17.2922 -2.28943 -7.10386
vt -90.7359 -3.93701
vt -90.7359 -0.393701
f 1/9/3 4/10/3 7/11/3 5/12/3 

vt 0.810428 -93.0832
vn 1.9161e-13 -0.988321 0.152386
vt 1.74073 -96.9873
vt 62.4303 -96.9873
v 23.5787 -2.34582 -7.46961
vt 63.3617 -93.0832
f 7/13/4 4/14/4 3/15/4 8/16/4 

vt 75.8391 -3.93701
vn 0.994597 -0.0158201 -0.102603
vt 79.8528 -3.93701
vt 79.8528 -0.393701
vt 75.8391 -0.393701
f 8/17/5 3/18/5 2/19/5 6/20/5 

vt 0.810428 -3.93701
vn 0.0587659 0.152123 0.986613
vt 63.3617 -3.93701
vt 63.3617 -0.393701
vt 0.810428 -0.393701
f 7/21/6 8/22/6 6/23/6 5/24/6 

