# Alias OBJ Model File
# Exported from SketchUp, (c) 2000-2012 Trimble Navigation Limited
# File units = millimeters

mtllib icone seta.mtl

g Mesh1 Model

usemtl M_0137_Black
v 33851.2 0 -16251.2
vt -1332.73 639.81
vn 0 -1 -0
v 33851.2 0 -16471.2
vt -1332.73 648.471
v 35341.2 0 -16471.2
vt -1391.39 648.471
v 35341.2 0 -17181.2
vt -1391.39 676.424
v 36241.7 0 -16361.2
vt -1426.84 644.141
v 35341.2 0 -15541.2
vt -1391.39 611.857
v 35341.2 0 -16251.2
vt -1391.39 639.81
f 1/1/1 2/2/1 3/3/1 4/4/1 5/5/1 6/6/1 7/7/1 

vt -648.471 0
vn -1 0 -0
vt -639.81 0
v 33851.2 20 -16251.2
vt -639.81 0.787402
v 33851.2 20 -16471.2
vt -648.471 0.787402
f 2/8/2 1/9/2 8/10/2 9/11/2 

vt 1332.73 0
vn 0 0 1
vt 1391.39 0
v 35341.2 20 -16251.2
vt 1391.39 0.787402
vt 1332.73 0.787402
f 1/12/3 7/13/3 10/14/3 8/15/3 

vt -611.857 0
v 35341.2 20 -15541.2
vt -611.857 0.787402
f 7/9/2 6/16/2 11/17/2 10/10/2 

vt 1440.72 0
vn 0.67329 0 0.739378
vt 1488.67 0
v 36241.7 20 -16361.2
vt 1488.67 0.787402
vt 1440.72 0.787402
f 6/18/4 5/19/4 12/20/4 11/21/4 

vt -621.28 0
vn 0.67329 0 -0.739378
vt -573.331 0
v 35341.2 20 -17181.2
vt -573.331 0.787402
vt -621.28 0.787402
f 5/22/5 4/23/5 13/24/5 12/25/5 

vt -676.424 0
v 35341.2 20 -16471.2
vt -676.424 0.787402
f 4/26/2 3/8/2 14/11/2 13/27/2 

vt -1391.39 0
vn 0 0 -1
vt -1332.73 0
vt -1332.73 0.787402
vt -1391.39 0.787402
f 3/28/6 2/29/6 9/30/6 14/31/6 

vt 1332.73 648.471
vn 0 1 -0
vt 1332.73 639.81
vt 1391.39 639.81
vt 1391.39 611.857
vt 1426.84 644.141
vt 1391.39 676.424
vt 1391.39 648.471
f 9/32/7 8/33/7 10/34/7 11/35/7 12/36/7 13/37/7 14/38/7 

