# Alias OBJ Model File
# Exported from SketchUp, (c) 2000-2012 Trimble Navigation Limited
# File units = millimeters

mtllib camera5.mtl

g Mesh1 Group1 Model

usemtl Branco
v 13186 7789.57 -5054.45
vt -27.0916 18.5302
vn 4.78685e-14 1 -1.64488e-13
v 13106 7789.57 -5054.45
vt -23.942 18.5302
v 13106 7789.57 -4974.45
vt -23.942 21.6798
v 13186 7789.57 -4974.45
vt -27.0916 21.6798
f 1/1/1 2/2/1 3/3/1 4/4/1 

vt -23.942 154.198
vn 7.89422e-15 -4.03317e-12 -1
vt -27.0916 154.198
v 13186 3503.81 -5054.45
vt -27.0916 -14.5324
v 13186 -7113.94 -5054.45
vt -27.0916 -432.554
v 13106 -7113.94 -5054.45
vt -23.942 -432.554
v 13106 3503.81 -5054.45
vt -23.942 -14.5324
f 2/5/2 1/6/2 5/7/2 6/8/2 7/9/2 8/10/2 

vt 76.5893 135.109
vn 1 -2.51767e-15 7.90269e-15
vt 74.0542 136.978
v 13186 3503.81 -4974.45
vt -26.0737 1.16815
v 13186 -7113.94 -4974.45
vt -274.136 -335.295
vt -271.601 -337.164
vt -23.5387 -0.700888
f 1/11/3 4/12/3 9/13/3 10/14/3 6/15/3 5/16/3 

vt 27.0916 154.198
vn 8.45099e-12 1.42074e-12 1
vt 23.942 154.198
v 13106 3503.81 -4974.45
vt 23.942 -14.5324
v 13106 -7113.94 -4974.45
vt 23.942 -432.554
vt 27.0916 -432.554
vt 27.0916 -14.5324
f 4/17/4 3/18/4 11/19/4 12/20/4 10/21/4 9/22/4 

vt -74.0542 136.978
vn -1 -1.69789e-13 8.68463e-12
vt -76.5893 135.109
vt 23.5387 -0.700888
vt 271.601 -337.164
vt 274.136 -335.295
vt 26.0737 1.16815
f 3/23/5 2/24/5 8/25/5 7/26/5 12/27/5 11/28/5 

vt 23.942 18.5302
vn -4.77985e-14 -1 1.64488e-13
vt 27.0916 18.5302
vt 27.0916 21.6798
vt 23.942 21.6798
f 7/29/6 6/30/6 10/31/6 12/32/6 

g Mesh2 Model

usemtl Layer0
v 13146 5627.86 -5013.93
vt 197.399 535.707
vn 0.0917679 -0.99578 4.11558e-10
v 13145.8 5627.85 -5013.95
vt 197.399 535.702
v 13145.7 5627.84 -5014
vt 197.402 535.697
v 13145.6 5627.83 -5014.08
vt 197.405 535.693
v 13145.5 5627.82 -5014.19
vt 197.409 535.689
v 13145.5 5627.82 -5014.32
vt 197.414 535.687
v 13145.5 5627.81 -5014.46
vt 197.419 535.687
v 13145.5 5627.82 -5014.59
vt 197.425 535.687
v 13145.5 5627.82 -5014.72
vt 197.43 535.689
v 13145.6 5627.83 -5014.83
vt 197.434 535.693
v 13145.7 5627.84 -5014.91
vt 197.437 535.697
v 13145.8 5627.85 -5014.96
vt 197.439 535.702
v 13146 5627.86 -5014.98
vt 197.44 535.707
v 13146.1 5627.88 -5014.96
vt 197.439 535.713
v 13146.2 5627.89 -5014.91
vt 197.437 535.718
v 13146.3 5627.9 -5014.83
vt 197.434 535.722
v 13146.4 5627.9 -5014.72
vt 197.43 535.725
v 13146.5 5627.91 -5014.59
vt 197.425 535.727
v 13146.5 5627.91 -5014.45
vt 197.419 535.728
v 13146.5 5627.91 -5014.32
vt 197.414 535.727
v 13146.4 5627.9 -5014.19
vt 197.409 535.725
v 13146.3 5627.9 -5014.08
vt 197.405 535.722
v 13146.2 5627.89 -5014
vt 197.401 535.718
v 13146.1 5627.88 -5013.95
vt 197.399 535.713
f 13/33/7 14/34/7 15/35/7 16/36/7 17/37/7 18/38/7 19/39/7 20/40/7 21/41/7 22/42/7 23/43/7 24/44/7 25/45/7 26/46/7 27/47/7 28/48/7 29/49/7 30/50/7 31/51/7 32/52/7 33/53/7 34/54/7 35/55/7 36/56/7 

