# Alias OBJ Model File
# Exported from SketchUp, (c) 2000-2012 Trimble Navigation Limited
# File units = millimeters

mtllib camera1.mtl

g Mesh1 Group2 Group1 Model

usemtl Amarelo
v 2991.98 -1502.75 -8203.05
vt -75.8055 -3.93701
vn -1 -5.18467e-16 -3.58843e-15
v 2991.98 -1502.75 -1869.45
vt 255.982 -3.93701
v 2991.98 -1392.75 -1869.45
vt 255.982 0.393701
v 2991.98 -1392.75 -8203.05
vt -75.8055 0.393701
f 1/1/1 2/2/1 3/3/1 4/4/1 

vt -154.911 -3.93701
vn -5.8164e-15 2.35773e-15 1
v 23304.5 -1502.75 -1869.45
vt 46.8504 -3.93701
v 23304.5 -1392.75 -1869.45
vt 46.8504 0.393701
vt -154.911 0.393701
f 2/5/2 5/6/2 6/7/2 3/8/2 

vt -255.982 -3.93701
vn 1 5.20712e-16 3.58936e-15
v 23304.5 -1502.75 -8203.05
vt 75.8055 -3.93701
v 23304.5 -1392.75 -8203.05
vt 75.8055 0.393701
vt -255.982 0.393701
f 5/9/3 7/10/3 8/11/3 6/12/3 

vt -46.8504 -3.93701
vn 5.8164e-15 -2.35773e-15 -1
vt 154.911 -3.93701
vt 154.911 0.393701
vt -46.8504 0.393701
f 7/13/4 1/14/4 4/15/4 8/16/4 

vt -154.911 75.8055
vn 3.12308e-16 1 -4.67216e-15
v 3061.65 -1392.75 -8133.38
vt -154.219 72.1558
vt 46.8504 75.8055
f 4/17/5 9/18/5 8/19/5

vt -154.911 -255.982
f 9/18/5 4/17/5 3/20/5

v 3061.65 -1392.75 -1939.13
vt -154.219 -252.332
f 3/20/5 10/21/5 9/18/5

vt 46.8504 -255.982
f 10/21/5 3/20/5 6/22/5

v 23234.9 -1392.75 -1939.13
vt 46.1584 -252.332
f 10/21/5 6/22/5 11/23/5

f 11/23/5 6/22/5 8/19/5

v 23234.9 -1392.75 -8133.38
vt 46.1584 72.1558
f 8/19/5 12/24/5 11/23/5

f 8/19/5 9/18/5 12/24/5

vt 46.1584 0.393701
vn -9.46333e-14 2.25945e-15 1
vt -154.219 0.393701
v 3061.65 -1502.75 -8133.38
vt -154.219 -3.93701
v 23234.9 -1502.75 -8133.38
vt 46.1584 -3.93701
f 12/25/6 9/26/6 13/27/6 14/28/6 

vt 72.1558 0.393701
vn 1 5.08053e-16 3.48917e-15
vt -252.332 0.393701
v 3061.65 -1502.75 -1939.13
vt -252.332 -3.93701
vt 72.1558 -3.93701
f 9/29/7 10/30/7 15/31/7 13/32/7 

vt 154.219 0.393701
vn 1.02424e-13 -2.16117e-15 -1
vt -46.1584 0.393701
v 23234.9 -1502.75 -1939.13
vt -46.1584 -3.93701
vt 154.219 -3.93701
f 10/33/8 11/34/8 16/35/8 15/36/8 

vt 252.332 0.393701
vn -1 -5.11492e-16 -3.45081e-15
vt -72.1558 0.393701
vt -72.1558 -3.93701
vt 252.332 -3.93701
f 11/37/9 12/38/9 14/39/9 16/40/9 

