# Alias OBJ Model File
# Exported from SketchUp, (c) 2000-2012 Trimble Navigation Limited
# File units = meters

mtllib camera2-1.mtl

g Mesh1 Group1 Model

usemtl Amarelo
v 12.6065 -1.97615 -5.07207
vt 1.1691e-13 -3.93701
vn -0.998272 0.0089551 0.0580795
v 12.6916 -1.75602 -3.64437
vt 75.8055 -3.93701
v 12.6916 -1.66707 -3.65808
vt 75.8055 -0.393701
v 12.6065 -1.8872 -5.08578
vt 6.00666e-14 -0.393701
f 1/1/1 2/2/1 3/3/1 4/4/1 

vt 28.7788 -3.93701
vn -0.977289 0.0322926 0.209438
v 23.31 -1.48203 -1.86737
vt 192.859 -3.93701
v 23.31 -1.39308 -1.88108
vt 192.859 -0.393701
vt 28.7788 -0.393701
f 2/5/2 5/6/2 6/7/2 3/8/2 

vt -202.52 -3.93701
vn 0.998272 -0.0089551 -0.0580795
v 22.9399 -2.44001 -8.08049
vt 127.373 -3.93701
v 22.9399 -2.35106 -8.09421
vt 127.373 -0.393701
vt -202.52 -0.393701
f 5/9/3 7/10/3 8/11/3 6/12/3 

vt -134.918 -3.93701
vn -0.995477 -0.0144769 -0.093892
vt 29.6716 -3.93701
vt 29.6716 -0.393701
vt -134.918 -0.393701
f 7/13/4 1/14/4 4/15/4 8/16/4 

v 22.871 -2.33613 -7.99736
vt -56.6481 -122.461
vn -1.83056e-14 0.988321 -0.152386
vt -57.3884 -127.373
vt 46.8504 5.68636e-14
f 9/17/5 8/18/5 4/19/5

vt -57.3884 202.52
f 8/18/5 9/17/5 6/20/5

v 23.2301 -1.40666 -1.96916
vt -56.6481 197.614
f 10/21/5 6/20/5 9/17/5

vt 46.8504 75.8055
f 6/20/5 10/21/5 3/22/5

v 12.7625 -1.67676 -3.72092
vt 46.1101 72.6989
f 3/22/5 10/21/5 11/23/5

vt -26.8499 -0.393701
vn 0.977289 -0.0322926 -0.209438
vt -188.6 -0.393701
v 23.2301 -1.49561 -1.95544
vt -188.6 -3.93701
v 12.7625 -1.76571 -3.7072
vt -26.8499 -3.93701
f 11/24/6 10/25/6 12/26/6 13/27/6 

vt 197.614 -0.393701
vt -122.461 -0.393701
v 22.871 -2.42508 -7.98365
vt -122.461 -3.93701
vt 197.614 -3.93701
f 10/28/1 9/29/1 14/30/1 12/31/1 

vt 130.647 -0.393701
vn 0.995477 0.0144769 0.093892
v 12.6844 -1.87886 -5.03167
vt -31.6041 -0.393701
v 12.6844 -1.96781 -5.01796
vt -31.6041 -3.93701
vt 130.647 -3.93701
f 9/32/7 15/33/7 16/34/7 14/35/7 

vt 46.1101 3.10298
f 9/17/5 4/19/5 15/36/5

f 15/36/5 4/19/5 11/23/5

f 3/22/5 11/23/5 4/19/5

vt -3.10298 -0.393701
vt -72.6989 -0.393701
vt -72.6989 -3.93701
vt -3.10298 -3.93701
f 15/37/3 11/38/3 13/39/3 16/40/3 

