# Alias OBJ Model File
# Exported from SketchUp, (c) 2000-2012 Trimble Navigation Limited
# File units = millimeters

mtllib camera6.mtl

g Mesh1 Group1 Model

usemtl azul
v 15509.3 5607.36 -4066.1
vt -493.243 275.197
vn 7.44215e-16 -1.9984e-15 -1
v 10782.6 5607.36 -4066.1
vt -307.151 275.197
v 10782.6 5677.36 -4066.1
vt -307.151 277.953
v 15509.3 5677.36 -4066.1
vt -493.243 277.953
f 1/1/1 2/2/1 3/3/1 4/4/1 

vt -493.243 153.092
vn -2.59819e-15 -1 2.38698e-15
v 10958.4 5607.36 -4015.98
vt -314.07 151.119
vt -307.151 153.092
f 1/5/2 5/6/2 2/7/2

v 15333.6 5607.36 -4015.98
vt -486.324 151.119
f 5/6/2 1/5/2 6/8/2

v 13852.4 5607.36 -3096.49
vt -428.007 114.919
f 1/5/2 7/9/2 6/8/2

v 13461.5 5607.36 -2853.88
vt -412.62 105.367
f 1/5/2 8/10/2 7/9/2

v 13146 5607.36 -2599.02
vt -400.197 95.3332
f 9/11/2 8/10/2 1/5/2

v 13146 5607.36 -2658
vt -400.197 97.6553
f 9/11/2 10/12/2 8/10/2

f 9/11/2 5/6/2 10/12/2

f 5/6/2 9/11/2 2/7/2

vt 180.219 275.197
vn -0.527404 2.44249e-15 0.849614
vt 289.734 275.197
v 13146 5677.36 -2599.02
vt 289.734 277.953
vt 180.219 277.953
f 2/13/3 9/14/3 11/15/3 3/16/3 

vt 499.807 277.953
vn 0.527404 1.53211e-14 0.849614
vt 390.292 277.953
vt 390.292 275.197
vt 499.807 275.197
f 4/17/4 11/18/4 9/19/4 1/20/4 

v 13146 5677.36 -2658
vt 400.197 97.6553
vn 1.59899e-15 1 -5.38458e-15
vt 400.197 95.3332
vt 493.243 153.092
f 12/21/5 11/22/5 4/23/5

v 10958.4 5677.36 -4015.98
vt 314.07 151.119
f 13/24/5 11/22/5 12/21/5

vt 307.151 153.092
f 11/22/5 13/24/5 3/25/5

f 13/24/5 4/23/5 3/25/5

v 15333.6 5677.36 -4015.98
vt 486.324 151.119
f 4/23/5 13/24/5 14/26/5

vt 314.07 277.953
vn 1.99475e-16 -2.64233e-14 1
vt 314.07 275.197
vt 486.324 275.197
vt 486.324 277.953
f 13/27/6 5/28/6 6/29/6 14/30/6 

vt -187.138 275.197
vn 0.527404 -2.50355e-14 -0.849614
vt -187.138 277.953
vt -288.509 277.953
vt -288.509 275.197
f 5/31/7 13/32/7 12/33/7 10/34/7 

vt -391.517 275.197
vn -0.527404 -2.2482e-14 -0.849614
vt -391.517 277.953
v 13461.5 5677.36 -2853.88
vt -406.139 277.953
v 13852.4 5677.36 -3096.49
vt -424.249 277.953
vt -492.888 277.953
vt -492.888 275.197
vt -424.249 275.197
vt -406.139 275.197
f 10/35/8 12/36/8 15/37/8 16/38/8 14/39/8 6/40/8 7/41/8 8/42/8 

vt 412.62 105.367
f 12/21/5 4/23/5 15/43/5

vt 428.007 114.919
f 15/43/5 4/23/5 16/44/5

f 16/44/5 4/23/5 14/26/5

