# Alias OBJ Model File
# Exported from SketchUp, (c) 2000-2012 Trimble Navigation Limited
# File units = meters

mtllib directional.mtl

g Mesh1 Group1 Model

usemtl FrontColor
v 7.75128 2.86007 -5.02697
vt 0.688915 9.61039
vn 0 1 -0
v 7.72297 2.86007 -5.51424
vt 0.267092 16.872
v 7.70505 2.86007 -5.26874
vt 0 13.2134
f 1/1/1 2/2/1 3/3/1

v 7.73736 2.86007 -5.27062
vt 0.481465 13.2414
f 2/2/1 1/1/1 4/4/1

v 7.782 2.86007 -5.03715
vt 1.14674 9.76202
f 4/4/1 1/1/1 5/5/1

v 7.8585 2.86007 -4.80541
vt 2.28689 6.30844
f 5/5/1 1/1/1 6/6/1

vt -4.68222 0
vn -0.835572 0 0.549381
vt -8.35052 0
vn -0.949291 0 0.314399
v 7.75128 2.83365 -5.02697
vt -8.35052 -0.393701
v 7.8585 2.83365 -4.80541
vt -4.68222 -0.393701
f 6/7/2 1/8/3 7/9/3 8/10/2 

vt -9.31002 0
vt -12.9783 0
vn -0.998317 0 0.0579919
v 7.70505 2.83365 -5.26874
vt -12.9783 -0.393701
vt -9.31002 -0.393701
f 1/11/3 3/12/4 9/13/4 7/14/3 

vt -13.1784 0
vt -16.8467 0
vn -0.97931 0 -0.202368
v 7.72297 2.83365 -5.51424
vt -16.8467 -0.393701
vt -13.1784 -0.393701
f 3/15/4 2/16/5 10/17/5 9/18/4 

vt -16.0236 0
v 7.80382 2.86007 -5.74673
vt -19.6919 0
vn -0.893564 0 -0.448936
v 7.80382 2.83365 -5.74673
vt -19.6919 -0.393701
vt -16.0236 -0.393701
f 2/19/5 11/20/6 12/21/6 10/22/5 

v 7.75466 2.86007 -5.50769
vt 0.73939 16.7744
vt 1.47199 20.3368
f 2/2/1 13/23/1 11/24/1

f 13/23/1 2/2/1 4/4/1

vt 16.7837 0
vn 0.97931 0 0.202368
vt 13.2413 0
vn 0.998317 0 -0.0579919
v 7.73736 2.83365 -5.27062
vt 13.2413 -0.393701
v 7.75466 2.83365 -5.50769
vt 16.7837 -0.393701
f 13/25/7 4/26/8 14/27/8 15/28/7 

vt 12.9154 0
vt 9.37297 0
vn 0.949291 0 -0.314399
v 7.782 2.83365 -5.03715
vt 9.37297 -0.393701
vt 12.9154 -0.393701
f 4/29/8 5/30/9 16/31/9 14/32/8 

vt 8.28757 0
v 7.88554 2.86007 -4.82319
vt 4.74517 0
vn 0.835572 0 -0.549381
v 7.88554 2.83365 -4.82319
vt 4.74517 -0.393701
vt 8.28757 -0.393701
f 5/33/9 17/34/10 18/35/10 16/36/9 

vt 2.68987 6.57339
f 5/5/1 6/6/1 17/37/1

v 8.01942 2.86007 -4.61914
vt 4.68502 3.53258
f 17/37/1 6/6/1 19/38/1

vt 0.389654 0
vn -0.66491 0 0.746923
vt -3.27865 0
vt -3.27865 -0.393701
v 8.01942 2.83365 -4.61914
vt 0.389654 -0.393701
f 19/39/11 6/40/2 8/41/2 20/42/11 

vt -2.28689 6.30844
vn 0 -1 -0
vt -2.68987 6.57339
vt -4.68502 3.53258
f 8/43/12 18/44/12 20/45/12

vt -1.14674 9.76202
f 8/43/12 16/46/12 18/44/12

vt -0.688915 9.61039
f 7/47/12 16/46/12 8/43/12

vt -0.481465 13.2414
f 7/47/12 14/48/12 16/46/12

vt -0.267092 16.872
f 7/47/12 10/49/12 14/48/12

f 10/49/12 7/47/12 9/3/12

vt -0.73939 16.7744
f 10/49/12 15/50/12 14/48/12

vt -1.47199 20.3368
f 15/50/12 10/49/12 12/51/12

v 7.83274 2.83365 -5.7322
vt -1.90293 20.1203
f 15/50/12 12/51/12 21/52/12

v 7.94209 2.83365 -5.95038
vt -3.53258 23.3716
f 21/52/12 12/51/12 22/53/12

vt -17.6519 0
v 7.94209 2.86007 -5.95038
vt -21.3202 0
vn -0.746923 0 -0.66491
vt -21.3202 -0.393701
vt -17.6519 -0.393701
f 11/54/6 23/55/13 22/56/13 12/57/6 

v 7.83274 2.86007 -5.7322
vt 1.90293 20.1203
vt 3.53258 23.3716
f 11/24/1 24/58/1 23/59/1

f 11/24/1 13/23/1 24/58/1

vt 19.629 0
vn 0.893564 0 0.448936
vt 16.0866 0
vt 16.0866 -0.393701
vt 19.629 -0.393701
f 24/60/14 13/61/7 15/62/7 21/63/14 

v 7.96626 2.86007 -5.92886
vt 21.2573 0
vn 0.746923 0 0.66491
vt 17.7148 0
vt 17.7148 -0.393701
v 7.96626 2.83365 -5.92886
vt 21.2573 -0.393701
f 25/64/15 24/65/14 21/66/14 26/67/15 

vt 3.8928 23.051
f 23/59/1 24/58/1 25/68/1

v 8.12836 2.86007 -6.11129
vt 6.30844 25.7698
f 23/59/1 25/68/1 27/69/1

v 8.14614 2.86007 -6.08425
vt 6.57339 25.3668
f 27/69/1 25/68/1 28/70/1

vt 21.5576 0
vn 0.549381 0 0.835572
vt 18.0152 0
vt 18.0152 -0.393701
v 8.14614 2.83365 -6.08425
vt 21.5576 -0.393701
f 28/71/16 25/72/15 26/73/15 29/74/16 

vt -3.8928 23.051
v 8.12836 2.83365 -6.11129
vt -6.30844 25.7698
vt -6.57339 25.3668
f 26/75/12 30/76/12 29/77/12

f 26/75/12 22/53/12 30/76/12

f 21/52/12 22/53/12 26/75/12

vt -17.9522 0
vt -21.6205 0
vn -0.549381 0 -0.835572
vt -21.6205 -0.393701
vt -17.9522 -0.393701
f 23/78/13 27/79/17 30/80/17 22/81/13 

vt -16.9042 0
v 8.34992 2.86007 -6.21852
vt -20.5725 0
vn -0.314399 0 -0.949291
v 8.34992 2.83365 -6.21852
vt -20.5725 -0.393701
vt -16.9042 -0.393701
f 27/82/17 31/83/18 32/84/18 30/85/17 

vt 9.61039 27.3677
f 27/69/1 28/70/1 31/86/1

v 8.3601 2.86007 -6.1878
vt 9.76202 26.9099
f 31/86/1 28/70/1 33/87/1

vt 20.5095 0
vn 0.314399 0 0.949291
vt 16.9671 0
vt 16.9671 -0.393701
v 8.3601 2.83365 -6.1878
vt 20.5095 -0.393701
f 33/88/19 28/89/16 29/90/16 34/91/19 

vt -9.61039 27.3677
vt -9.76202 26.9099
f 29/77/12 32/92/12 34/93/12

f 29/77/12 30/76/12 32/92/12

v 8.59169 2.83365 -6.26475
vt -13.2134 28.0567
f 34/93/12 32/92/12 35/94/12

vt -14.5791 0
v 8.59169 2.86007 -6.26475
vt -18.2474 0
vn -0.0579919 0 -0.998317
vt -18.2474 -0.393701
vt -14.5791 -0.393701
f 31/95/18 36/96/20 35/97/20 32/98/18 

vt 13.2134 28.0567
f 31/86/1 33/87/1 36/99/1

v 8.59357 2.86007 -6.23244
vt 13.2414 27.5752
f 36/99/1 33/87/1 37/100/1

vt 18.1845 0
vn 0.0579919 0 0.998317
vt 14.6421 0
vt 14.6421 -0.393701
v 8.59357 2.83365 -6.23244
vt 18.1845 -0.393701
f 37/101/21 33/102/19 34/103/19 38/104/21 

vt -13.2414 27.5752
f 34/93/12 35/94/12 38/105/12

v 8.83719 2.83365 -6.24683
vt -16.872 27.7896
f 38/105/12 35/94/12 39/106/12

vt -11.1355 0
v 8.83719 2.86007 -6.24683
vt -14.8038 0
vn 0.202368 0 -0.97931
vt -14.8038 -0.393701
vt -11.1355 -0.393701
f 36/107/20 40/108/22 39/109/22 35/110/20 

vt 16.872 27.7896
f 36/99/1 37/100/1 40/111/1

v 8.83064 2.86007 -6.21513
vt 16.7744 27.3173
f 40/111/1 37/100/1 41/112/1

vt 14.7409 0
vn -0.202368 0 0.97931
vt 11.1985 0
vt 11.1985 -0.393701
v 8.83064 2.83365 -6.21513
vt 14.7409 -0.393701
f 41/113/23 37/114/21 38/115/21 42/116/23 

vt -16.7744 27.3173
f 38/105/12 39/106/12 42/117/12

v 9.05515 2.83365 -6.13706
vt -20.1203 26.1537
f 42/117/12 39/106/12 43/118/12

v 9.06968 2.83365 -6.16598
vt -20.3368 26.5847
f 43/118/12 39/106/12 44/119/12

vt -6.80807 0
v 9.06968 2.86007 -6.16598
vt -10.4764 0
vn 0.448936 0 -0.893564
vt -10.4764 -0.393701
vt -6.80807 -0.393701
f 40/120/22 45/121/24 44/122/24 39/123/22 

v 9.05515 2.86007 -6.13706
vt 20.1203 26.1537
vt 20.3368 26.5847
f 40/111/1 46/124/1 45/125/1

f 40/111/1 41/112/1 46/124/1

vt 10.4134 0
vn -0.448936 0 0.893564
vt 6.87102 0
vt 6.87102 -0.393701
vt 10.4134 -0.393701
f 46/126/25 41/127/23 42/128/23 43/129/25 

v 9.25181 2.86007 -6.00353
vt 5.49702 0
vt 1.95462 0
vt 1.95462 -0.393701
v 9.25181 2.83365 -6.00353
vt 5.49702 -0.393701
f 47/130/11 46/131/25 43/132/25 48/133/11 

vt 23.051 24.1638
f 45/125/1 46/124/1 47/134/1

v 9.27333 2.86007 -6.02771
vt 23.3716 24.5241
f 45/125/1 47/134/1 49/135/1

v 9.4072 2.86007 -5.82366
vt 25.3668 21.4833
f 49/135/1 47/134/1 50/136/1

vt 0.326705 0
vt -3.2157 0
vt -3.2157 -0.393701
v 9.4072 2.83365 -5.82366
vt 0.326705 -0.393701
f 50/137/2 47/138/11 48/139/11 51/140/2 

vt -23.051 24.1638
v 9.27333 2.83365 -6.02771
vt -23.3716 24.5241
vt -25.3668 21.4833
f 48/141/12 52/142/12 51/143/12

f 48/141/12 44/119/12 52/142/12

f 43/118/12 44/119/12 48/141/12

vt -1.89167 0
vt -5.55997 0
vn 0.66491 0 -0.746923
vt -5.55997 -0.393701
vt -1.89167 -0.393701
f 45/144/24 49/145/26 52/146/26 44/147/24 

vt 3.27865 0
v 9.43425 2.86007 -5.84144
vt -0.389654 0
v 9.43425 2.83365 -5.84144
vt -0.389654 -0.393701
vt 3.27865 -0.393701
f 49/148/26 53/149/10 54/150/10 52/151/26 

vt 25.7698 21.7482
f 49/135/1 50/136/1 53/152/1

v 9.51075 2.86007 -5.6097
vt 26.9099 18.2946
f 53/152/1 50/136/1 55/153/1

vt -4.74517 0
vt -8.28757 0
vt -8.28757 -0.393701
v 9.51075 2.83365 -5.6097
vt -4.74517 -0.393701
f 55/154/3 50/155/2 51/156/2 56/157/3 

vt -25.7698 21.7482
vt -26.9099 18.2946
f 51/143/12 54/158/12 56/159/12

f 51/143/12 52/142/12 54/158/12

v 9.54147 2.83365 -5.61987
vt -27.3677 18.4463
f 56/159/12 54/158/12 57/160/12

vt 8.35052 0
v 9.54147 2.86007 -5.61987
vt 4.68222 0
vt 4.68222 -0.393701
vt 8.35052 -0.393701
f 53/161/10 58/162/9 57/163/9 54/164/10 

vt 27.3677 18.4463
f 53/152/1 55/153/1 58/165/1

v 9.55539 2.86007 -5.37623
vt 27.5752 14.8153
f 58/165/1 55/153/1 59/166/1

vt -9.37297 0
vt -12.9154 0
vt -12.9154 -0.393701
v 9.55539 2.83365 -5.37623
vt -9.37297 -0.393701
f 59/167/4 55/168/3 56/169/3 60/170/4 

vt -27.5752 14.8153
f 56/159/12 57/160/12 60/171/12

v 9.5877 2.83365 -5.37811
vt -28.0567 14.8432
f 60/171/12 57/160/12 61/172/12

vt 12.9783 0
v 9.5877 2.86007 -5.37811
vt 9.31002 0
vt 9.31002 -0.393701
vt 12.9783 -0.393701
f 58/173/9 62/174/8 61/175/8 57/176/9 

vt 28.0567 14.8432
f 58/165/1 59/166/1 62/177/1

v 9.56978 2.86007 -5.13261
vt 27.7896 11.1847
f 62/177/1 59/166/1 63/178/1

v 9.53809 2.86007 -5.13916
vt 27.3173 11.2823
f 64/179/1 63/178/1 59/166/1

v 9.48893 2.86007 -4.90012
vt 26.5847 7.71989
f 64/179/1 65/180/1 63/178/1

v 9.46001 2.86007 -4.91465
vt 26.1537 7.9364
f 66/181/1 65/180/1 64/179/1

v 9.35066 2.86007 -4.69647
vt 24.5241 4.68502
f 66/181/1 67/182/1 65/180/1

v 9.32649 2.86007 -4.71799
vt 24.1638 5.00569
f 68/183/1 67/182/1 66/181/1

v 9.16439 2.86007 -4.53555
vt 21.7482 2.28689
f 68/183/1 69/184/1 67/182/1

v 9.14661 2.86007 -4.56259
vt 21.4833 2.68987
f 70/185/1 69/184/1 68/183/1

v 8.94283 2.86007 -4.42833
vt 18.4463 0.688915
f 70/185/1 71/186/1 69/184/1

v 8.93265 2.86007 -4.45905
vt 18.2946 1.14674
f 72/187/1 71/186/1 70/185/1

v 8.70106 2.86007 -4.3821
vt 14.8432 0
f 72/187/1 73/188/1 71/186/1

v 8.69918 2.86007 -4.41441
vt 14.8153 0.481465
f 74/189/1 73/188/1 72/187/1

v 8.46211 2.86007 -4.43171
vt 11.2823 0.73939
f 75/190/1 73/188/1 74/189/1

v 8.45556 2.86007 -4.40002
vt 11.1847 0.267092
f 75/190/1 76/191/1 73/188/1

v 8.2376 2.86007 -4.50979
vt 7.9364 1.90293
f 77/192/1 76/191/1 75/190/1

v 8.22307 2.86007 -4.48087
vt 7.71989 1.47199
f 77/192/1 78/193/1 76/191/1

v 8.04094 2.86007 -4.64331
vt 5.00569 3.8928
f 79/194/1 78/193/1 77/192/1

f 79/194/1 19/38/1 78/193/1

f 17/37/1 19/38/1 79/194/1

vt 3.2157 0
vt -0.326705 0
v 8.04094 2.83365 -4.64331
vt -0.326705 -0.393701
vt 3.2157 -0.393701
f 17/195/10 79/196/26 80/197/26 18/198/10 

vt -1.95462 0
vt -5.49702 0
v 8.2376 2.83365 -4.50979
vt -5.49702 -0.393701
vt -1.95462 -0.393701
f 79/199/26 77/200/24 81/201/24 80/202/26 

vt -6.87102 0
vt -10.4134 0
v 8.46211 2.83365 -4.43171
vt -10.4134 -0.393701
vt -6.87102 -0.393701
f 77/203/24 75/204/22 82/205/22 81/206/24 

vt -11.1985 0
vt -14.7409 0
v 8.69918 2.83365 -4.41441
vt -14.7409 -0.393701
vt -11.1985 -0.393701
f 75/207/22 74/208/20 83/209/20 82/210/22 

vt -14.6421 0
vt -18.1845 0
v 8.93265 2.83365 -4.45905
vt -18.1845 -0.393701
vt -14.6421 -0.393701
f 74/211/20 72/212/18 84/213/18 83/214/20 

vt -16.9671 0
vt -20.5095 0
v 9.14661 2.83365 -4.56259
vt -20.5095 -0.393701
vt -16.9671 -0.393701
f 72/215/18 70/216/17 85/217/17 84/218/18 

vt -18.0152 0
vt -21.5576 0
v 9.32649 2.83365 -4.71799
vt -21.5576 -0.393701
vt -18.0152 -0.393701
f 70/219/17 68/220/13 86/221/13 85/222/17 

vt -17.7148 0
vt -21.2573 0
v 9.46001 2.83365 -4.91465
vt -21.2573 -0.393701
vt -17.7148 -0.393701
f 68/223/13 66/224/6 87/225/6 86/226/13 

vt -16.0866 0
vt -19.629 0
v 9.53809 2.83365 -5.13916
vt -19.629 -0.393701
vt -16.0866 -0.393701
f 66/227/6 64/228/5 88/229/5 87/230/6 

vt -13.2413 0
vt -16.7837 0
vt -16.7837 -0.393701
vt -13.2413 -0.393701
f 64/231/5 59/232/4 60/233/4 88/234/5 

v 9.56978 2.83365 -5.13261
vt -27.7896 11.1847
vt -27.3173 11.2823
f 89/235/12 88/236/12 60/171/12

v 9.48893 2.83365 -4.90012
vt -26.5847 7.71989
f 90/237/12 88/236/12 89/235/12

vt -26.1537 7.9364
f 90/237/12 87/238/12 88/236/12

v 9.35066 2.83365 -4.69647
vt -24.5241 4.68502
f 91/239/12 87/238/12 90/237/12

vt -24.1638 5.00569
f 91/239/12 86/240/12 87/238/12

v 9.16439 2.83365 -4.53555
vt -21.7482 2.28689
f 92/241/12 86/240/12 91/239/12

vt -21.4833 2.68987
f 92/241/12 85/242/12 86/240/12

v 8.94283 2.83365 -4.42833
vt -18.4463 0.688915
f 93/243/12 85/242/12 92/241/12

vt -18.2946 1.14674
f 93/243/12 84/244/12 85/242/12

v 8.70106 2.83365 -4.3821
vt -14.8432 0
f 94/245/12 84/244/12 93/243/12

vt -14.8153 0.481465
f 94/245/12 83/246/12 84/244/12

vt -11.2823 0.73939
f 94/245/12 82/247/12 83/246/12

v 8.45556 2.83365 -4.40002
vt -11.1847 0.267092
f 95/248/12 82/247/12 94/245/12

vt -7.9364 1.90293
f 95/248/12 81/249/12 82/247/12

v 8.22307 2.83365 -4.48087
vt -7.71989 1.47199
f 96/250/12 81/249/12 95/248/12

vt -5.00569 3.8928
f 96/250/12 80/251/12 81/249/12

f 20/45/12 80/251/12 96/250/12

f 20/45/12 18/44/12 80/251/12

vt 5.55997 0
vt 1.89167 0
vt 1.89167 -0.393701
vt 5.55997 -0.393701
f 78/252/25 19/253/11 20/254/11 96/255/25 

vt 10.4764 0
vt 6.80807 0
vt 6.80807 -0.393701
vt 10.4764 -0.393701
f 76/256/23 78/257/25 96/258/25 95/259/23 

vt 14.8038 0
vt 11.1355 0
vt 11.1355 -0.393701
vt 14.8038 -0.393701
f 73/260/21 76/261/23 95/262/23 94/263/21 

vt 18.2474 0
vt 14.5791 0
vt 14.5791 -0.393701
vt 18.2474 -0.393701
f 71/264/19 73/265/21 94/266/21 93/267/19 

vt 20.5725 0
vt 16.9042 0
vt 16.9042 -0.393701
vt 20.5725 -0.393701
f 69/268/16 71/269/19 93/270/19 92/271/16 

vt 21.6205 0
vt 17.9522 0
vt 17.9522 -0.393701
vt 21.6205 -0.393701
f 67/272/15 69/273/16 92/274/16 91/275/15 

vt 21.3202 0
vt 17.6519 0
vt 17.6519 -0.393701
vt 21.3202 -0.393701
f 65/276/14 67/277/15 91/278/15 90/279/14 

vt 19.6919 0
vt 16.0236 0
vt 16.0236 -0.393701
vt 19.6919 -0.393701
f 63/280/7 65/281/14 90/282/14 89/283/7 

vt 16.8467 0
vt 13.1784 0
vt 13.1784 -0.393701
vt 16.8467 -0.393701
f 62/284/8 63/285/7 89/286/7 61/287/8 

f 60/171/12 61/172/12 89/235/12

g Mesh2 Group3 Group2 Model

usemtl Color_L04
v 7.8367 -3.38396e-17 -4.27606
vt 0 13.7795
v 7.84468 -6.76792e-17 -4.26808
vt -0.31419 13.4653
v 7.8367 -3.38396e-17 -3.92606
vt 0 0
f 97/288/12 98/289/12 99/290/12

v 8.1067 -3.38396e-17 -4.27606
vt -10.6299 13.7795
f 98/289/12 97/288/12 100/291/12

vt -10.6299 0
vn 0 0 -1
v 7.8367 0.02 -4.27606
vt 0 0.787402
v 8.1067 0.02 -4.27606
vt -10.6299 0.787402
f 100/292/27 97/290/27 101/293/27 102/294/27 

vt -13.7795 0
vn -1 0 -0
v 7.8367 0.02 -3.92606
vt -13.7795 0.787402
f 97/295/28 99/290/28 103/293/28 101/296/28 

vn 0 0 1
v 8.1067 -3.38396e-17 -3.92606
vt 10.6299 0
v 8.1067 0.02 -3.92606
vt 10.6299 0.787402
f 99/290/29 104/297/29 105/298/29 103/293/29 

v 7.84468 -6.76792e-17 -3.93404
vt -0.31419 0.31419
f 99/290/12 106/299/12 104/292/12

f 106/299/12 99/290/12 98/289/12

v 7.84468 0.02 -4.26808
vt 13.4653 0.787402
vn 1 0 -0
v 7.84468 0.02 -3.93404
vt 0.31419 0.787402
vt 0.31419 -1.33227e-15
vt 13.4653 -1.33227e-15
f 107/300/30 108/301/30 106/302/30 98/303/30 

vt 0.31419 13.4653
vt 0.31419 0.31419
f 107/304/1 101/288/1 108/305/1

vt 10.6299 13.7795
f 101/288/1 107/304/1 102/306/1

v 8.09872 0.02 -4.26808
vt 10.3157 13.4653
f 102/306/1 107/304/1 109/307/1

vt 10.3157 0.787402
v 8.09872 -6.76792e-17 -4.26808
vt 10.3157 -1.33227e-15
f 109/308/29 107/301/29 98/302/29 110/309/29 

vt -10.3157 13.4653
f 98/289/12 100/291/12 110/310/12

v 8.09872 -6.76792e-17 -3.93404
vt -10.3157 0.31419
f 110/310/12 100/291/12 111/311/12

f 104/292/12 111/311/12 100/291/12

f 104/292/12 106/299/12 111/311/12

vt -0.31419 0.787402
v 8.09872 0.02 -3.93404
vt -10.3157 0.787402
vt -10.3157 -1.33227e-15
vt -0.31419 -1.33227e-15
f 108/312/27 112/313/27 111/314/27 106/315/27 

vt 10.3157 0.31419
f 108/305/1 105/297/1 112/316/1

f 108/305/1 103/290/1 105/297/1

f 103/290/1 108/305/1 101/288/1

f 112/316/1 105/297/1 109/307/1

f 102/306/1 109/307/1 105/297/1

vt 13.7795 0
vt 13.7795 0.787402
f 104/290/30 100/317/30 102/318/30 105/293/30 

vt -13.4653 0.787402
vt -13.4653 -1.33227e-15
f 112/312/28 109/319/28 110/320/28 111/315/28 

g Mesh3 Group4 Group2 Model

v 7.9667 0.02 -4.0924
vt 0.161681 0
vn -0.5 0 0.866025
v 7.96911 0.02 -4.0914
vt 0.264458 0
vn -0.258819 0 0.965926
v 7.96911 1.14113 -4.0914
vt 0.264458 44.1389
v 7.9667 1.14113 -4.0924
vt 0.161681 44.1389
f 113/321/31 114/322/32 115/323/32 116/324/31 

v 7.98136 0.02 -4.09847
vt -0.773987 0.291804
v 7.98036 0.02 -4.09606
vt -0.734656 0.19685
v 7.97877 0.02 -4.09399
vt -0.672089 0.115312
v 7.9767 0.02 -4.0924
vt -0.590551 0.0527459
v 7.97429 0.02 -4.0914
vt -0.495598 0.013415
v 7.9717 0.02 -4.09106
vt -0.393701 0
vt -0.291804 0.013415
vt -0.19685 0.0527459
v 7.96463 0.02 -4.09399
vt -0.115312 0.115312
v 7.96304 0.02 -4.09606
vt -0.0527459 0.19685
v 7.96204 0.02 -4.09847
vt -0.013415 0.291804
v 7.9617 0.02 -4.10106
vt 0 0.393701
v 7.96204 0.02 -4.10364
vt -0.013415 0.495598
v 7.96304 0.02 -4.10606
vt -0.0527459 0.590551
v 7.96463 0.02 -4.10813
vt -0.115312 0.672089
v 7.9667 0.02 -4.10972
vt -0.19685 0.734656
v 7.96911 0.02 -4.11072
vt -0.291804 0.773987
v 7.9717 0.02 -4.11106
vt -0.393701 0.787402
v 7.97429 0.02 -4.11072
vt -0.495598 0.773987
v 7.9767 0.02 -4.10972
vt -0.590551 0.734656
v 7.97877 0.02 -4.10813
vt -0.672089 0.672089
v 7.98036 0.02 -4.10606
vt -0.734656 0.590551
v 7.98136 0.02 -4.10364
vt -0.773987 0.495598
v 7.9817 0.02 -4.10106
vt -0.787402 0.393701
f 117/325/12 118/326/12 119/327/12 120/328/12 121/329/12 122/330/12 114/331/12 113/332/12 123/333/12 124/334/12 125/335/12 126/336/12 127/337/12 128/338/12 129/339/12 130/340/12 131/341/12 132/342/12 133/343/12 134/344/12 135/345/12 136/346/12 137/347/12 138/348/12 

vt 0.463007 0
vn 0.866025 0 0.5
vt 0.565783 0
vn 0.965926 0 0.258819
v 7.98136 1.14113 -4.09847
vt 0.565783 44.1389
v 7.98036 1.14113 -4.09606
vt 0.463007 44.1389
f 118/349/33 117/350/34 139/351/34 140/352/33 

vt 0.390333 0
vt 0.493109 0
v 7.9817 1.14113 -4.10106
vt 0.493109 44.1389
vt 0.390333 44.1389
f 117/353/34 138/354/30 141/355/30 139/356/34 

vt 0.287556 0
vn 0.965926 0 -0.258819
v 7.98136 1.14113 -4.10364
vt 0.287556 44.1389
f 138/357/30 137/353/35 142/356/35 141/358/30 

vn 0.866025 0 -0.5
v 7.98036 1.14113 -4.10606
f 137/321/35 136/322/36 143/323/36 142/324/35 

vt 0.0212857 0
vt 0.124062 0
vn 0.707107 0 -0.707107
v 7.97877 1.14113 -4.10813
vt 0.124062 44.1389
vt 0.0212857 44.1389
f 136/359/36 135/360/37 144/361/37 143/362/36 

vt -0.124062 0
vt -0.0212857 0
vn 0.5 0 -0.866025
v 7.9767 1.14113 -4.10972
vt -0.0212857 44.1389
vt -0.124062 44.1389
f 135/363/37 134/364/38 145/365/38 144/366/37 

vt -0.264458 0
vt -0.161681 0
vn 0.258819 0 -0.965926
v 7.97429 1.14113 -4.11072
vt -0.161681 44.1389
vt -0.264458 44.1389
f 134/367/38 133/368/39 146/369/39 145/370/38 

vt -0.390333 0
vt -0.287556 0
v 7.9717 1.14113 -4.11106
vt -0.287556 44.1389
vt -0.390333 44.1389
f 133/371/39 132/372/27 147/373/27 146/374/39 

vt -0.493109 0
vn -0.258819 0 -0.965926
v 7.96911 1.14113 -4.11072
vt -0.493109 44.1389
f 132/375/27 131/371/40 148/374/40 147/376/27 

vt -0.565783 0
vt -0.463007 0
vn -0.5 0 -0.866025
v 7.9667 1.14113 -4.10972
vt -0.463007 44.1389
vt -0.565783 44.1389
f 131/377/40 130/378/41 149/379/41 148/380/40 

vt -0.603402 0
vt -0.500625 0
vn -0.707107 0 -0.707107
v 7.96463 1.14113 -4.10813
vt -0.500625 44.1389
vt -0.603402 44.1389
f 130/381/41 129/382/42 150/383/42 149/384/41 

vn -0.866025 0 -0.5
v 7.96304 1.14113 -4.10606
f 129/381/42 128/382/43 151/383/43 150/384/42 

vn -0.965926 0 -0.258819
v 7.96204 1.14113 -4.10364
f 128/377/43 127/378/44 152/379/44 151/380/43 

v 7.9617 1.14113 -4.10106
f 127/375/44 126/371/28 153/374/28 152/376/44 

vn -0.965926 0 0.258819
v 7.96204 1.14113 -4.09847
f 126/371/28 125/372/45 154/373/45 153/374/28 

vn -0.866025 0 0.5
v 7.96304 1.14113 -4.09606
f 125/367/45 124/368/46 155/369/46 154/370/45 

vn -0.707107 0 0.707107
v 7.96463 1.14113 -4.09399
f 124/363/46 123/364/47 156/365/47 155/366/46 

f 123/359/47 113/360/31 116/361/31 156/362/47 

vt 0.734656 0.19685
vt 0.773987 0.291804
vt 0.787402 0.393701
vt 0.773987 0.495598
vt 0.734656 0.590551
vt 0.672089 0.672089
vt 0.590551 0.734656
vt 0.495598 0.773987
vt 0.393701 0.787402
vt 0.291804 0.773987
vt 0.19685 0.734656
vt 0.115312 0.672089
vt 0.0527459 0.590551
vt 0.013415 0.495598
vt 0.013415 0.291804
vt 0.0527459 0.19685
vt 0.115312 0.115312
vt 0.19685 0.0527459
vt 0.291804 0.013415
v 7.9717 1.14113 -4.09106
vt 0.393701 0
v 7.97429 1.14113 -4.0914
vt 0.495598 0.013415
v 7.9767 1.14113 -4.0924
vt 0.590551 0.0527459
v 7.97877 1.14113 -4.09399
vt 0.672089 0.115312
f 140/385/1 139/386/1 141/387/1 142/388/1 143/389/1 144/390/1 145/391/1 146/392/1 147/393/1 148/394/1 149/395/1 150/396/1 151/397/1 152/398/1 153/336/1 154/399/1 155/400/1 156/401/1 116/402/1 115/403/1 157/404/1 158/405/1 159/406/1 160/407/1 

f 114/357/32 122/353/29 157/356/29 115/358/32 

vn 0.258819 0 0.965926
f 122/353/29 121/354/48 158/355/48 157/356/29 

vn 0.5 0 0.866025
f 121/349/48 120/350/49 159/351/49 158/352/48 

vt 0.500625 0
vt 0.603402 0
vn 0.707107 0 0.707107
vt 0.603402 44.1389
vt 0.500625 44.1389
f 120/408/49 119/409/50 160/410/50 159/411/49 

f 119/408/50 118/409/33 140/410/33 160/411/50 

